<svg width="203.96" height="237.86" viewBox="0 0 279 298" fill="none" xmlns="http://www.w3.org/2000/svg">
<path d="M110.426 235.125L86.8356 252.767L97.2321 201.65L110.426 235.125Z" fill="url(#paint0_linear_1_1074)"/>
<path d="M62.1853 182.535L110.426 235.125L120.402 182.59L62.1853 182.535Z" fill="url(#paint1_linear_1_1074)"/>
<path d="M235.959 85.6068L197.746 182.182L165.096 172.668L148.7 212.828L62.1852 182.535L70.1308 154.399L59.0211 149.072L86.5249 21.8884L235.959 85.6068Z" fill="url(#paint2_linear_1_1074)"/>
<path style="mix-blend-mode:multiply" opacity="0.45" d="M205.303 163.067C200.154 153.996 192.93 147.881 184.934 145.822C176.939 143.764 168.697 145.899 161.695 151.842C154.692 157.785 149.391 167.145 146.745 178.235C144.099 189.325 144.284 201.415 147.265 212.326L148.7 212.828L165.095 172.668L197.745 182.182L205.303 163.067Z" fill="url(#paint3_linear_1_1074)"/>
<path d="M179 223.371C156.909 223.371 143.553 206.051 149.17 184.686C154.787 163.32 177.248 146 199.34 146C221.431 146 234.787 163.32 229.17 184.686C223.553 206.051 201.091 223.371 179 223.371Z" fill="url(#paint4_linear_1_1074)"/>
<path style="mix-blend-mode:multiply" opacity="0.45" d="M74.0703 79.4518L112.558 32.9954L107.46 30.819L84.1316 32.925L74.0703 79.4518Z" fill="url(#paint5_linear_1_1074)"/>
<path d="M84.8917 13.3304L117.229 27.6985L72.8323 64.6383L84.8917 13.3304Z" fill="url(#paint6_linear_1_1074)"/>
<path d="M93.3354 85.469L100.51 53.9254L112.212 59.4767C114.362 60.4967 116.077 61.6915 117.357 63.0609C118.638 64.4304 119.5 65.8976 119.945 67.4625C120.393 69.0171 120.437 70.5851 120.077 72.1664C119.797 73.3986 119.322 74.3735 118.653 75.0913C117.986 75.7988 117.185 76.2607 116.251 76.4772C115.328 76.6878 114.33 76.6749 113.256 76.4385L113.185 76.7465C114.287 77.3259 115.252 78.1589 116.08 79.2456C116.917 80.3369 117.512 81.5916 117.864 83.01C118.218 84.4181 118.219 85.8973 117.866 87.4478C117.486 89.1215 116.761 90.4327 115.691 91.3815C114.633 92.3244 113.271 92.8216 111.605 92.8728C109.938 92.9241 108.011 92.4307 105.823 91.3926L93.3354 85.469ZM100.755 82.948L105.793 85.3378C107.515 86.1547 108.851 86.3962 109.802 86.0623C110.755 85.7181 111.367 84.9505 111.638 83.7594C111.836 82.8866 111.817 82.024 111.578 81.1715C111.34 80.319 110.903 79.5313 110.266 78.8084C109.639 78.09 108.83 77.4961 107.841 77.0267L102.661 74.5692L100.755 82.948ZM103.687 70.0564L108.268 72.2296C109.115 72.6312 109.902 72.8286 110.631 72.8217C111.372 72.8091 112 72.5952 112.516 72.1802C113.042 71.7697 113.399 71.1486 113.588 70.3169C113.848 69.1771 113.681 68.0799 113.088 67.0251C112.505 65.9748 111.528 65.1247 110.158 64.4748L105.463 62.2475L103.687 70.0564ZM133.258 69.4606L126.084 101.004L119.905 98.0728L127.079 66.5293L133.258 69.4606ZM155.404 91.2621C155.374 90.4178 155.244 89.6224 155.013 88.8758C154.785 88.1191 154.455 87.4163 154.022 86.7676C153.602 86.1132 153.083 85.5202 152.467 84.9886C151.859 84.4616 151.156 84.0085 150.357 83.6294C148.863 82.9208 147.459 82.6984 146.145 82.9623C144.84 83.2306 143.699 83.9808 142.723 85.2129C141.75 86.4347 141.013 88.1443 140.514 90.3417C140.014 92.539 139.898 94.5545 140.166 96.3881C140.434 98.2216 141.042 99.8126 141.99 101.161C142.94 102.499 144.185 103.533 145.727 104.265C147.125 104.928 148.38 105.227 149.491 105.163C150.614 105.093 151.549 104.689 152.296 103.951C153.053 103.218 153.585 102.179 153.891 100.834L155.101 101.63L147.566 98.0554L148.708 93.0343L160.938 98.8361L160.034 102.81C159.404 105.582 158.32 107.707 156.782 109.185C155.247 110.652 153.405 111.473 151.257 111.649C149.111 111.814 146.811 111.314 144.356 110.15C141.616 108.85 139.358 107.056 137.58 104.768C135.805 102.47 134.611 99.8392 134 96.8756C133.4 93.9062 133.478 90.7581 134.234 87.4313C134.816 84.8745 135.677 82.7575 136.817 81.0802C137.97 79.3971 139.328 78.1529 140.892 77.3477C142.456 76.5425 144.148 76.168 145.969 76.2243C147.791 76.2806 149.667 76.7668 151.598 77.683C153.254 78.4683 154.736 79.4613 156.044 80.662C157.354 81.8523 158.453 83.1816 159.342 84.6498C160.241 86.1226 160.893 87.6779 161.301 89.316C161.711 90.9437 161.838 92.5854 161.683 94.2409L155.404 91.2621Z" fill="white"/>
<path d="M90.6918 131.981C90.7591 131.462 90.651 130.983 90.3673 130.544C90.0836 130.104 89.6449 129.744 89.0513 129.462C88.6479 129.271 88.2934 129.171 87.9876 129.162C87.6827 129.15 87.4318 129.215 87.2348 129.358C87.0416 129.503 86.9142 129.711 86.8526 129.982C86.7936 130.204 86.7925 130.422 86.8494 130.636C86.91 130.851 87.0119 131.061 87.1551 131.265C87.2993 131.466 87.4733 131.664 87.6773 131.861C87.8822 132.054 88.1051 132.242 88.3461 132.424L89.3346 133.193C89.8165 133.558 90.2472 133.945 90.6267 134.352C91.0062 134.76 91.3178 135.187 91.5617 135.635C91.8055 136.083 91.9668 136.551 92.0456 137.039C92.1281 137.528 92.1116 138.037 91.9958 138.564C91.8164 139.335 91.4815 139.917 90.9911 140.313C90.5055 140.705 89.8885 140.897 89.1402 140.888C88.3966 140.877 87.5492 140.645 86.5979 140.194C85.6542 139.746 84.8677 139.2 84.2386 138.556C83.6132 137.914 83.1741 137.194 82.9214 136.396C82.6733 135.596 82.643 134.737 82.8304 133.821L85.222 134.955C85.1524 135.391 85.1843 135.797 85.3178 136.174C85.4559 136.549 85.6761 136.888 85.9783 137.191C86.2852 137.491 86.6517 137.742 87.0779 137.944C87.4965 138.143 87.8748 138.25 88.2129 138.264C88.5548 138.281 88.838 138.213 89.0625 138.06C89.287 137.907 89.4338 137.679 89.5029 137.375C89.5673 137.091 89.5435 136.816 89.4314 136.549C89.3231 136.284 89.1359 136.013 88.87 135.737C88.6078 135.462 88.2762 135.169 87.8752 134.856L86.6809 133.907C85.7542 133.181 85.068 132.407 84.6224 131.586C84.1768 130.765 84.0619 129.889 84.2777 128.959C84.4476 128.193 84.7878 127.615 85.2981 127.225C85.8123 126.836 86.4406 126.64 87.1832 126.638C87.9258 126.635 88.7232 126.836 89.5756 127.24C90.4432 127.652 91.164 128.171 91.738 128.799C92.3159 129.428 92.7206 130.113 92.9523 130.856C93.1839 131.598 93.22 132.347 93.0605 133.104L90.6918 131.981ZM94.5866 143.786L91.9382 142.529L98.843 131.828L102.028 133.339L103.188 147.866L100.54 146.61L99.8254 135.488L99.7341 135.444L94.5866 143.786ZM95.5489 138.748L101.805 141.716L101.331 143.798L95.0754 140.83L95.5489 138.748ZM104.595 148.534L107.465 135.918L109.936 137.09L107.567 147.507L112.578 149.884L112.078 152.083L104.595 148.534ZM113.715 152.86L116.584 140.244L124.461 143.98L123.961 146.18L118.556 143.615L117.872 146.622L122.872 148.993L122.372 151.193L117.372 148.821L116.687 151.833L122.115 154.408L121.614 156.607L113.715 152.86Z" fill="white"/>
<defs>
<linearGradient id="paint0_linear_1_1074" x1="105.002" y1="213.105" x2="88.4051" y2="248.886" gradientUnits="userSpaceOnUse">
<stop/>
<stop offset="0.99" stop-color="#464547"/>
</linearGradient>
<linearGradient id="paint1_linear_1_1074" x1="93.1571" y1="177.991" x2="76.2109" y2="214.575" gradientUnits="userSpaceOnUse">
<stop stop-color="#4285F4"/>
<stop offset="0.98" stop-color="#4A2BF1"/>
</linearGradient>
<linearGradient id="paint2_linear_1_1074" x1="68.2846" y1="86.4784" x2="223.346" y2="130.268" gradientUnits="userSpaceOnUse">
<stop/>
<stop offset="0.99" stop-color="#464547"/>
</linearGradient>
<linearGradient id="paint3_linear_1_1074" x1="132.519" y1="230.623" x2="231.76" y2="165.643" gradientUnits="userSpaceOnUse">
<stop offset="0.01" stop-color="#464547"/>
<stop offset="1"/>
</linearGradient>
<linearGradient id="paint4_linear_1_1074" x1="200.746" y1="240.75" x2="160.025" y2="137.281" gradientUnits="userSpaceOnUse">
<stop stop-color="#EA4335"/>
<stop offset="1" stop-color="#EA4335"/>
</linearGradient>
<linearGradient id="paint5_linear_1_1074" x1="58.7014" y1="87.1037" x2="134.353" y2="37.5719" gradientUnits="userSpaceOnUse">
<stop offset="0.01" stop-color="#464547"/>
<stop offset="1"/>
</linearGradient>
<linearGradient id="paint6_linear_1_1074" x1="97.7142" y1="28.5693" x2="82.8287" y2="69.9675" gradientUnits="userSpaceOnUse">
<stop stop-color="#4285F4"/>
<stop offset="0.98" stop-color="#4A2BF1"/>
</linearGradient>
</defs>
</svg>
